{
	"patcher" : 	{
		"fileversion" : 1,
		"appversion" : 		{
			"major" : 8,
			"minor" : 6,
			"revision" : 4,
			"architecture" : "x64",
			"modernui" : 1
		}
,
		"classnamespace" : "box",
		"rect" : [ 34.0, 77.0, 929.0, 642.0 ],
		"bglocked" : 0,
		"openinpresentation" : 1,
		"default_fontsize" : 12.0,
		"default_fontface" : 0,
		"default_fontname" : "Arial",
		"gridonopen" : 1,
		"gridsize" : [ 15.0, 15.0 ],
		"gridsnaponopen" : 1,
		"objectsnaponopen" : 1,
		"statusbarvisible" : 2,
		"toolbarvisible" : 1,
		"lefttoolbarpinned" : 0,
		"toptoolbarpinned" : 0,
		"righttoolbarpinned" : 0,
		"bottomtoolbarpinned" : 0,
		"toolbars_unpinned_last_save" : 0,
		"tallnewobj" : 0,
		"boxanimatetime" : 200,
		"enablehscroll" : 1,
		"enablevscroll" : 1,
		"devicewidth" : 0.0,
		"description" : "",
		"digest" : "",
		"tags" : "",
		"style" : "",
		"subpatcher_template" : "",
		"assistshowspatchername" : 0,
		"boxes" : [ 			{
				"box" : 				{
					"id" : "obj-45",
					"linecount" : 2,
					"maxclass" : "comment",
					"numinlets" : 1,
					"numoutlets" : 0,
					"patching_rect" : [ 43.749999582767487, 332.142853975296021, 150.0, 34.0 ],
					"text" : "attempt to set a volume default for in1"
				}

			}
, 			{
				"box" : 				{
					"id" : "obj-43",
					"maxclass" : "comment",
					"numinlets" : 1,
					"numoutlets" : 0,
					"patching_rect" : [ 120.535713136196136, -52.678570926189423, 150.0, 20.0 ],
					"text" : "delay effect on signal"
				}

			}
, 			{
				"box" : 				{
					"id" : "obj-40",
					"linecount" : 4,
					"maxclass" : "comment",
					"numinlets" : 1,
					"numoutlets" : 0,
					"patching_rect" : [ 683.035707771778107, 784.821421086788177, 150.0, 62.0 ],
					"text" : "reverb at the end of all the main signal processing so things don't become \"muddy\""
				}

			}
, 			{
				"box" : 				{
					"id" : "obj-38",
					"linecount" : 3,
					"maxclass" : "comment",
					"numinlets" : 1,
					"numoutlets" : 0,
					"patching_rect" : [ 24.999999761581421, 145.535712897777557, 150.0, 48.0 ],
					"text" : "Additional LFOs to add textures or bleeping sounds"
				}

			}
, 			{
				"box" : 				{
					"bgmode" : 0,
					"border" : 0,
					"clickthrough" : 0,
					"enablehscroll" : 0,
					"enablevscroll" : 0,
					"extract" : 1,
					"id" : "obj-36",
					"lockeddragscroll" : 0,
					"lockedsize" : 0,
					"maxclass" : "bpatcher",
					"name" : "bp.Feedback Delay.maxpat",
					"numinlets" : 1,
					"numoutlets" : 1,
					"offset" : [ 0.0, 0.0 ],
					"outlettype" : [ "signal" ],
					"patching_rect" : [ 66.96428507566452, -29.464285433292389, 279.0, 116.0 ],
					"varname" : "bp.Feedback Delay",
					"viewvisibility" : 1
				}

			}
, 			{
				"box" : 				{
					"bgmode" : 0,
					"border" : 0,
					"clickthrough" : 0,
					"enablehscroll" : 0,
					"enablevscroll" : 0,
					"extract" : 1,
					"id" : "obj-31",
					"lockeddragscroll" : 0,
					"lockedsize" : 0,
					"maxclass" : "bpatcher",
					"name" : "bp.Gigaverb.maxpat",
					"numinlets" : 2,
					"numoutlets" : 2,
					"offset" : [ 0.0, 0.0 ],
					"outlettype" : [ "signal", "signal" ],
					"patching_rect" : [ 504.464280903339386, 633.035708248615265, 332.0, 116.0 ],
					"varname" : "bp.Gigaverb",
					"viewvisibility" : 1
				}

			}
, 			{
				"box" : 				{
					"id" : "obj-25",
					"maxclass" : "button",
					"numinlets" : 1,
					"numoutlets" : 1,
					"outlettype" : [ "bang" ],
					"parameter_enable" : 0,
					"patching_rect" : [ 129.0, 245.0, 24.0, 24.0 ]
				}

			}
, 			{
				"box" : 				{
					"id" : "obj-29",
					"maxclass" : "newobj",
					"numinlets" : 1,
					"numoutlets" : 1,
					"outlettype" : [ "bang" ],
					"patching_rect" : [ 131.0, 201.0, 58.0, 22.0 ],
					"text" : "loadbang"
				}

			}
, 			{
				"box" : 				{
					"format" : 6,
					"id" : "obj-28",
					"maxclass" : "flonum",
					"maximum" : 1.0,
					"minimum" : 0.5,
					"numinlets" : 1,
					"numoutlets" : 2,
					"outlettype" : [ "", "bang" ],
					"parameter_enable" : 0,
					"patching_rect" : [ 131.0, 290.0, 50.0, 22.0 ]
				}

			}
, 			{
				"box" : 				{
					"bgmode" : 0,
					"border" : 0,
					"clickthrough" : 0,
					"enablehscroll" : 0,
					"enablevscroll" : 0,
					"extract" : 1,
					"id" : "obj-24",
					"lockeddragscroll" : 0,
					"lockedsize" : 0,
					"maxclass" : "bpatcher",
					"name" : "bp.LFO3.maxpat",
					"numinlets" : 1,
					"numoutlets" : 2,
					"offset" : [ 0.0, 0.0 ],
					"outlettype" : [ "signal", "signal" ],
					"patching_rect" : [ 531.0, -41.0, 160.0, 116.0 ],
					"varname" : "bp.LFO3",
					"viewvisibility" : 1
				}

			}
, 			{
				"box" : 				{
					"id" : "obj-23",
					"maxclass" : "message",
					"numinlets" : 2,
					"numoutlets" : 1,
					"outlettype" : [ "" ],
					"patching_rect" : [ 1167.0, 212.0, 45.0, 22.0 ],
					"text" : "store 3"
				}

			}
, 			{
				"box" : 				{
					"id" : "obj-18",
					"maxclass" : "message",
					"numinlets" : 2,
					"numoutlets" : 1,
					"outlettype" : [ "" ],
					"patching_rect" : [ 1174.75, 354.0, 29.5, 22.0 ],
					"presentation" : 1,
					"presentation_rect" : [ 641.25, 499.0, 29.5, 22.0 ],
					"text" : "3"
				}

			}
, 			{
				"box" : 				{
					"id" : "obj-17",
					"linecount" : 2,
					"maxclass" : "comment",
					"numinlets" : 1,
					"numoutlets" : 0,
					"patching_rect" : [ 1238.0, 328.0, 150.0, 34.0 ],
					"text" : "Step 2: choose settings to load"
				}

			}
, 			{
				"box" : 				{
					"id" : "obj-13",
					"linecount" : 2,
					"maxclass" : "comment",
					"numinlets" : 1,
					"numoutlets" : 0,
					"patching_rect" : [ 1238.0, 157.0, 150.0, 34.0 ],
					"text" : "Step 1: choose settings and store preset"
				}

			}
, 			{
				"box" : 				{
					"bubble" : 1,
					"id" : "obj-11",
					"maxclass" : "comment",
					"numinlets" : 1,
					"numoutlets" : 0,
					"patching_rect" : [ 1241.071416735649109, 126.785713076591492, 150.0, 24.0 ],
					"presentation" : 1,
					"presentation_rect" : [ 671.0, 483.0, 120.0, 24.0 ],
					"text" : "choose a preset"
				}

			}
, 			{
				"box" : 				{
					"id" : "obj-12",
					"maxclass" : "newobj",
					"numinlets" : 1,
					"numoutlets" : 1,
					"outlettype" : [ "bang" ],
					"patching_rect" : [ 1167.0, 253.0, 58.0, 22.0 ],
					"text" : "loadbang"
				}

			}
, 			{
				"box" : 				{
					"id" : "obj-22",
					"maxclass" : "message",
					"numinlets" : 2,
					"numoutlets" : 1,
					"outlettype" : [ "" ],
					"patching_rect" : [ 1174.75, 319.0, 29.5, 22.0 ],
					"presentation" : 1,
					"presentation_rect" : [ 626.25, 484.0, 29.5, 22.0 ],
					"text" : "2"
				}

			}
, 			{
				"box" : 				{
					"id" : "obj-33",
					"maxclass" : "message",
					"numinlets" : 2,
					"numoutlets" : 1,
					"outlettype" : [ "" ],
					"patching_rect" : [ 1174.75, 287.0, 29.5, 22.0 ],
					"presentation" : 1,
					"presentation_rect" : [ 578.0, 484.0, 29.5, 22.0 ],
					"text" : "1"
				}

			}
, 			{
				"box" : 				{
					"id" : "obj-34",
					"maxclass" : "message",
					"numinlets" : 2,
					"numoutlets" : 1,
					"outlettype" : [ "" ],
					"patching_rect" : [ 1167.0, 175.0, 45.0, 22.0 ],
					"text" : "store 2"
				}

			}
, 			{
				"box" : 				{
					"id" : "obj-19",
					"maxclass" : "message",
					"numinlets" : 2,
					"numoutlets" : 1,
					"outlettype" : [ "" ],
					"patching_rect" : [ 1167.0, 142.0, 45.0, 22.0 ],
					"text" : "store 1"
				}

			}
, 			{
				"box" : 				{
					"id" : "obj-16",
					"maxclass" : "message",
					"numinlets" : 2,
					"numoutlets" : 1,
					"outlettype" : [ "" ],
					"patching_rect" : [ 1014.0, 334.0, 33.0, 22.0 ],
					"text" : "read"
				}

			}
, 			{
				"box" : 				{
					"id" : "obj-14",
					"maxclass" : "message",
					"numinlets" : 2,
					"numoutlets" : 1,
					"outlettype" : [ "" ],
					"patching_rect" : [ 1014.0, 304.0, 34.0, 22.0 ],
					"text" : "write"
				}

			}
, 			{
				"box" : 				{
					"autorestore" : "MyFive.json",
					"id" : "obj-35",
					"maxclass" : "newobj",
					"numinlets" : 1,
					"numoutlets" : 1,
					"outlettype" : [ "" ],
					"patching_rect" : [ 969.0, 269.0, 123.0, 22.0 ],
					"saved_object_attributes" : 					{
						"client_rect" : [ 4, 44, 358, 172 ],
						"parameter_enable" : 0,
						"parameter_mappable" : 0,
						"storage_rect" : [ 583, 69, 1034, 197 ]
					}
,
					"text" : "pattrstorage mySynth",
					"varname" : "mySynth"
				}

			}
, 			{
				"box" : 				{
					"id" : "obj-32",
					"maxclass" : "newobj",
					"numinlets" : 1,
					"numoutlets" : 4,
					"outlettype" : [ "", "", "", "" ],
					"patching_rect" : [ 969.0, 206.0, 56.0, 22.0 ],
					"text" : "autopattr",
					"varname" : "u808011318"
				}

			}
, 			{
				"box" : 				{
					"bgmode" : 0,
					"border" : 0,
					"clickthrough" : 0,
					"enablehscroll" : 0,
					"enablevscroll" : 0,
					"extract" : 1,
					"id" : "obj-21",
					"lockeddragscroll" : 0,
					"lockedsize" : 0,
					"maxclass" : "bpatcher",
					"name" : "bp.Big Scope.maxpat",
					"numinlets" : 2,
					"numoutlets" : 1,
					"offset" : [ 0.0, 0.0 ],
					"outlettype" : [ "signal" ],
					"patching_rect" : [ 62.0, 716.0, 372.0, 214.0 ],
					"presentation" : 1,
					"presentation_rect" : [ 455.0, 228.0, 372.0, 214.0 ],
					"varname" : "bp.Big Scope[1]",
					"viewvisibility" : 1
				}

			}
, 			{
				"box" : 				{
					"bgmode" : 0,
					"border" : 0,
					"clickthrough" : 0,
					"enablehscroll" : 0,
					"enablevscroll" : 0,
					"extract" : 1,
					"id" : "obj-20",
					"lockeddragscroll" : 0,
					"lockedsize" : 0,
					"maxclass" : "bpatcher",
					"name" : "bp.Signal Mixer.maxpat",
					"numinlets" : 4,
					"numoutlets" : 1,
					"offset" : [ 0.0, 0.0 ],
					"outlettype" : [ "signal" ],
					"patching_rect" : [ 253.571426153182983, 318.749996960163116, 175.0, 116.0 ],
					"presentation" : 1,
					"presentation_rect" : [ 316.0, 118.0, 175.0, 116.0 ],
					"varname" : "bp.Signal Mixer",
					"viewvisibility" : 1
				}

			}
, 			{
				"box" : 				{
					"bgmode" : 0,
					"border" : 0,
					"clickthrough" : 0,
					"enablehscroll" : 0,
					"enablevscroll" : 0,
					"extract" : 1,
					"id" : "obj-15",
					"lockeddragscroll" : 0,
					"lockedsize" : 0,
					"maxclass" : "bpatcher",
					"name" : "bp.Oscillator.maxpat",
					"numinlets" : 6,
					"numoutlets" : 2,
					"offset" : [ 0.0, 0.0 ],
					"outlettype" : [ "signal", "signal" ],
					"patching_rect" : [ 598.0, 177.0, 314.0, 116.0 ],
					"presentation" : 1,
					"presentation_rect" : [ 513.0, 118.0, 314.0, 116.0 ],
					"varname" : "bp.Oscillator[1]",
					"viewvisibility" : 1
				}

			}
, 			{
				"box" : 				{
					"bgmode" : 0,
					"border" : 0,
					"clickthrough" : 0,
					"enablehscroll" : 0,
					"enablevscroll" : 0,
					"extract" : 1,
					"id" : "obj-8",
					"lockeddragscroll" : 0,
					"lockedsize" : 0,
					"maxclass" : "bpatcher",
					"name" : "bp.Classroom Filter.maxpat",
					"numinlets" : 4,
					"numoutlets" : 1,
					"offset" : [ 0.0, 0.0 ],
					"outlettype" : [ "signal" ],
					"patching_rect" : [ 504.0, 389.0, 558.0, 223.0 ],
					"presentation" : 1,
					"presentation_rect" : [ 0.0, 438.0, 558.0, 223.0 ],
					"varname" : "bp.Classroom Filter",
					"viewvisibility" : 1
				}

			}
, 			{
				"box" : 				{
					"bgmode" : 0,
					"border" : 0,
					"clickthrough" : 0,
					"enablehscroll" : 0,
					"enablevscroll" : 0,
					"extract" : 1,
					"id" : "obj-7",
					"lockeddragscroll" : 0,
					"lockedsize" : 0,
					"maxclass" : "bpatcher",
					"name" : "bp.Graphic ADSR.maxpat",
					"numinlets" : 3,
					"numoutlets" : 1,
					"offset" : [ 0.0, 0.0 ],
					"outlettype" : [ "signal" ],
					"patching_rect" : [ 739.285707235336304, -174.999998331069946, 267.0, 116.0 ],
					"presentation" : 1,
					"presentation_rect" : [ 564.0, 545.0, 267.0, 116.0 ],
					"varname" : "bp.Graphic ADSR",
					"viewvisibility" : 1
				}

			}
, 			{
				"box" : 				{
					"bgmode" : 0,
					"border" : 0,
					"clickthrough" : 0,
					"enablehscroll" : 0,
					"enablevscroll" : 0,
					"extract" : 1,
					"id" : "obj-6",
					"lockeddragscroll" : 0,
					"lockedsize" : 0,
					"maxclass" : "bpatcher",
					"name" : "bp.VCA.maxpat",
					"numinlets" : 2,
					"numoutlets" : 1,
					"offset" : [ 0.0, 0.0 ],
					"outlettype" : [ "signal" ],
					"patching_rect" : [ 515.178566515445709, 784.821421086788177, 113.0, 116.0 ],
					"varname" : "bp.VCA",
					"viewvisibility" : 1
				}

			}
, 			{
				"box" : 				{
					"bgmode" : 0,
					"border" : 0,
					"clickthrough" : 0,
					"enablehscroll" : 0,
					"enablevscroll" : 0,
					"extract" : 1,
					"id" : "obj-5",
					"lockeddragscroll" : 0,
					"lockedsize" : 0,
					"maxclass" : "bpatcher",
					"name" : "bp.LFO.maxpat",
					"numinlets" : 0,
					"numoutlets" : 5,
					"offset" : [ 0.0, 0.0 ],
					"outlettype" : [ "signal", "signal", "signal", "signal", "signal" ],
					"patching_rect" : [ 361.607139408588409, -33.035713970661163, 137.0, 116.0 ],
					"presentation" : 1,
					"presentation_rect" : [ 0.0, -0.5, 137.0, 116.0 ],
					"varname" : "bp.LFO",
					"viewvisibility" : 1
				}

			}
, 			{
				"box" : 				{
					"bgmode" : 0,
					"border" : 0,
					"clickthrough" : 0,
					"enablehscroll" : 0,
					"enablevscroll" : 0,
					"extract" : 1,
					"id" : "obj-4",
					"lockeddragscroll" : 0,
					"lockedsize" : 0,
					"maxclass" : "bpatcher",
					"name" : "bp.Keyboard.maxpat",
					"numinlets" : 0,
					"numoutlets" : 4,
					"offset" : [ 0.0, 0.0 ],
					"outlettype" : [ "signal", "signal", "signal", "signal" ],
					"patching_rect" : [ 125.0, -197.0, 578.0, 117.0 ],
					"presentation" : 1,
					"presentation_rect" : [ 249.0, -1.0, 578.0, 117.0 ],
					"varname" : "bp.Keyboard",
					"viewvisibility" : 1
				}

			}
, 			{
				"box" : 				{
					"bgmode" : 0,
					"border" : 0,
					"clickthrough" : 0,
					"enablehscroll" : 0,
					"enablevscroll" : 0,
					"extract" : 1,
					"id" : "obj-3",
					"lockeddragscroll" : 0,
					"lockedsize" : 0,
					"maxclass" : "bpatcher",
					"name" : "bp.Stereo.maxpat",
					"numinlets" : 2,
					"numoutlets" : 0,
					"offset" : [ 0.0, 0.0 ],
					"patching_rect" : [ 515.178566515445709, 947.321419537067413, 148.0, 116.0 ],
					"varname" : "bp.Stereo",
					"viewvisibility" : 1
				}

			}
, 			{
				"box" : 				{
					"bgmode" : 0,
					"border" : 0,
					"clickthrough" : 0,
					"enablehscroll" : 0,
					"enablevscroll" : 0,
					"extract" : 1,
					"id" : "obj-2",
					"lockeddragscroll" : 0,
					"lockedsize" : 0,
					"maxclass" : "bpatcher",
					"name" : "bp.Big Scope.maxpat",
					"numinlets" : 2,
					"numoutlets" : 1,
					"offset" : [ 0.0, 0.0 ],
					"outlettype" : [ "signal" ],
					"patching_rect" : [ 62.0, 488.0, 372.0, 214.0 ],
					"presentation" : 1,
					"presentation_rect" : [ 0.0, 228.0, 372.0, 214.0 ],
					"varname" : "bp.Big Scope",
					"viewvisibility" : 1
				}

			}
, 			{
				"box" : 				{
					"bgmode" : 0,
					"border" : 0,
					"clickthrough" : 0,
					"enablehscroll" : 0,
					"enablevscroll" : 0,
					"extract" : 1,
					"id" : "obj-1",
					"lockeddragscroll" : 0,
					"lockedsize" : 0,
					"maxclass" : "bpatcher",
					"name" : "bp.Oscillator.maxpat",
					"numinlets" : 6,
					"numoutlets" : 2,
					"offset" : [ 0.0, 0.0 ],
					"outlettype" : [ "signal", "signal" ],
					"patching_rect" : [ 235.0, 175.0, 314.0, 116.0 ],
					"presentation" : 1,
					"presentation_rect" : [ 0.0, 118.0, 314.0, 116.0 ],
					"varname" : "bp.Oscillator",
					"viewvisibility" : 1
				}

			}
 ],
		"lines" : [ 			{
				"patchline" : 				{
					"destination" : [ "obj-2", 0 ],
					"order" : 1,
					"source" : [ "obj-1", 0 ]
				}

			}
, 			{
				"patchline" : 				{
					"destination" : [ "obj-20", 0 ],
					"order" : 0,
					"source" : [ "obj-1", 0 ]
				}

			}
, 			{
				"patchline" : 				{
					"destination" : [ "obj-33", 0 ],
					"source" : [ "obj-12", 0 ]
				}

			}
, 			{
				"patchline" : 				{
					"destination" : [ "obj-35", 0 ],
					"source" : [ "obj-14", 0 ]
				}

			}
, 			{
				"patchline" : 				{
					"destination" : [ "obj-20", 1 ],
					"order" : 0,
					"source" : [ "obj-15", 0 ]
				}

			}
, 			{
				"patchline" : 				{
					"destination" : [ "obj-21", 0 ],
					"order" : 1,
					"source" : [ "obj-15", 0 ]
				}

			}
, 			{
				"patchline" : 				{
					"destination" : [ "obj-35", 0 ],
					"source" : [ "obj-16", 0 ]
				}

			}
, 			{
				"patchline" : 				{
					"destination" : [ "obj-35", 0 ],
					"source" : [ "obj-18", 0 ]
				}

			}
, 			{
				"patchline" : 				{
					"destination" : [ "obj-35", 0 ],
					"source" : [ "obj-19", 0 ]
				}

			}
, 			{
				"patchline" : 				{
					"destination" : [ "obj-8", 0 ],
					"source" : [ "obj-20", 0 ]
				}

			}
, 			{
				"patchline" : 				{
					"destination" : [ "obj-35", 0 ],
					"source" : [ "obj-22", 0 ]
				}

			}
, 			{
				"patchline" : 				{
					"destination" : [ "obj-35", 0 ],
					"source" : [ "obj-23", 0 ]
				}

			}
, 			{
				"patchline" : 				{
					"destination" : [ "obj-15", 0 ],
					"source" : [ "obj-24", 0 ]
				}

			}
, 			{
				"patchline" : 				{
					"destination" : [ "obj-28", 0 ],
					"source" : [ "obj-25", 0 ]
				}

			}
, 			{
				"patchline" : 				{
					"destination" : [ "obj-20", 0 ],
					"source" : [ "obj-28", 0 ]
				}

			}
, 			{
				"patchline" : 				{
					"destination" : [ "obj-25", 0 ],
					"source" : [ "obj-29", 0 ]
				}

			}
, 			{
				"patchline" : 				{
					"destination" : [ "obj-6", 0 ],
					"source" : [ "obj-31", 1 ]
				}

			}
, 			{
				"patchline" : 				{
					"destination" : [ "obj-6", 0 ],
					"source" : [ "obj-31", 0 ]
				}

			}
, 			{
				"patchline" : 				{
					"destination" : [ "obj-35", 0 ],
					"source" : [ "obj-33", 0 ]
				}

			}
, 			{
				"patchline" : 				{
					"destination" : [ "obj-35", 0 ],
					"source" : [ "obj-34", 0 ]
				}

			}
, 			{
				"patchline" : 				{
					"destination" : [ "obj-1", 0 ],
					"source" : [ "obj-36", 0 ]
				}

			}
, 			{
				"patchline" : 				{
					"destination" : [ "obj-36", 0 ],
					"source" : [ "obj-4", 0 ]
				}

			}
, 			{
				"patchline" : 				{
					"destination" : [ "obj-7", 0 ],
					"source" : [ "obj-4", 1 ]
				}

			}
, 			{
				"patchline" : 				{
					"destination" : [ "obj-1", 4 ],
					"source" : [ "obj-5", 0 ]
				}

			}
, 			{
				"patchline" : 				{
					"destination" : [ "obj-15", 4 ],
					"order" : 0,
					"source" : [ "obj-5", 2 ]
				}

			}
, 			{
				"patchline" : 				{
					"destination" : [ "obj-24", 0 ],
					"order" : 1,
					"source" : [ "obj-5", 2 ]
				}

			}
, 			{
				"patchline" : 				{
					"destination" : [ "obj-3", 1 ],
					"order" : 0,
					"source" : [ "obj-6", 0 ]
				}

			}
, 			{
				"patchline" : 				{
					"destination" : [ "obj-3", 0 ],
					"order" : 1,
					"source" : [ "obj-6", 0 ]
				}

			}
, 			{
				"patchline" : 				{
					"destination" : [ "obj-6", 1 ],
					"source" : [ "obj-7", 0 ]
				}

			}
, 			{
				"patchline" : 				{
					"destination" : [ "obj-31", 1 ],
					"order" : 0,
					"source" : [ "obj-8", 0 ]
				}

			}
, 			{
				"patchline" : 				{
					"destination" : [ "obj-31", 0 ],
					"order" : 1,
					"source" : [ "obj-8", 0 ]
				}

			}
 ],
		"parameters" : 		{
			"obj-15::obj-106" : [ "CV3[2]", "CV3", 0 ],
			"obj-15::obj-107" : [ "Linear[1]", "Linear", 0 ],
			"obj-15::obj-11" : [ "PWM[1]", "PWM", 0 ],
			"obj-15::obj-129" : [ "CV2[2]", "CV2", 0 ],
			"obj-15::obj-36" : [ "PW[1]", "PW", 0 ],
			"obj-15::obj-4" : [ "Waveform[1]", "Waveform", 0 ],
			"obj-15::obj-45" : [ "FreqMode[1]", "FreqMode", 0 ],
			"obj-15::obj-46" : [ "Offset[1]", "Offset", 0 ],
			"obj-15::obj-51" : [ "Freq[2]", "Freq", 0 ],
			"obj-15::obj-53" : [ "Mute[3]", "Mute", 0 ],
			"obj-1::obj-106" : [ "CV3", "CV3", 0 ],
			"obj-1::obj-107" : [ "Linear", "Linear", 0 ],
			"obj-1::obj-11" : [ "PWM", "PWM", 0 ],
			"obj-1::obj-129" : [ "CV2", "CV2", 0 ],
			"obj-1::obj-36" : [ "PW", "PW", 0 ],
			"obj-1::obj-4" : [ "Waveform", "Waveform", 0 ],
			"obj-1::obj-45" : [ "FreqMode", "FreqMode", 0 ],
			"obj-1::obj-46" : [ "Offset", "Offset", 0 ],
			"obj-1::obj-51" : [ "Freq", "Freq", 0 ],
			"obj-1::obj-53" : [ "Mute", "Mute", 0 ],
			"obj-20::obj-29" : [ "in3", "in3", 0 ],
			"obj-20::obj-32" : [ "in2", "in2", 0 ],
			"obj-20::obj-33" : [ "in4", "in4", 0 ],
			"obj-20::obj-37" : [ "power[1]", "power", 0 ],
			"obj-20::obj-39" : [ "in1", "in1", 0 ],
			"obj-21::obj-1" : [ "divide[1]", "divide", 0 ],
			"obj-21::obj-129" : [ "Points[1]", "Points", 0 ],
			"obj-21::obj-52" : [ "multiply[1]", "multiply", 0 ],
			"obj-21::obj-69" : [ "Lock[1]", "Lock", 0 ],
			"obj-24::obj-12" : [ "Mute[10]", "Mute", 0 ],
			"obj-24::obj-20" : [ "Frequency[3]", "Freq", 0 ],
			"obj-24::obj-7" : [ "CV", "CV", 0 ],
			"obj-24::obj-75" : [ "SpectraLFOShape[2]", "Shape", 0 ],
			"obj-2::obj-1" : [ "divide", "divide", 0 ],
			"obj-2::obj-129" : [ "Points", "Points", 0 ],
			"obj-2::obj-52" : [ "multiply", "multiply", 0 ],
			"obj-2::obj-69" : [ "Lock", "Lock", 0 ],
			"obj-31::obj-23" : [ "bypass", "bypass", 0 ],
			"obj-31::obj-28" : [ "Size", "Size", 0 ],
			"obj-31::obj-3" : [ "Regen", "Regen", 0 ],
			"obj-31::obj-60" : [ "Damp", "Damp", 0 ],
			"obj-31::obj-62" : [ "Dry", "Dry", 0 ],
			"obj-31::obj-63" : [ "Early", "Early", 0 ],
			"obj-31::obj-64" : [ "Tail", "Tail", 0 ],
			"obj-31::obj-65" : [ "Spread", "Spread", 0 ],
			"obj-31::obj-66" : [ "Time", "Time", 0 ],
			"obj-36::obj-1" : [ "Mix", "Mix", 0 ],
			"obj-36::obj-21" : [ "HPF", "HPF", 0 ],
			"obj-36::obj-25" : [ "LPF", "LPF", 0 ],
			"obj-36::obj-28" : [ "Feedback", "Feedback", 0 ],
			"obj-36::obj-7" : [ "bypass[1]", "bypass", 0 ],
			"obj-36::obj-9" : [ "time", "Time", 0 ],
			"obj-3::obj-22" : [ "Mute[1]", "Mute", 0 ],
			"obj-3::obj-52" : [ "Level", "Level", 0 ],
			"obj-3::obj-55" : [ "DSP", "DSP", 0 ],
			"obj-3::obj-56" : [ "OutputChannel", "OutputChannel", 0 ],
			"obj-4::obj-12" : [ "KeyboardMode", "KeyboardMode", 0 ],
			"obj-4::obj-15::obj-2" : [ "pastebang", "pastebang", 0 ],
			"obj-4::obj-48" : [ "live.text", "live.text", 0 ],
			"obj-4::obj-5" : [ "Octave", "Octave", 0 ],
			"obj-4::obj-52" : [ "octave", "octave", 0 ],
			"obj-4::obj-68" : [ "RepeatInterval", "RepeatInterval", 0 ],
			"obj-4::obj-71" : [ "velocity", "velocity", 0 ],
			"obj-5::obj-12" : [ "Mute[2]", "Mute", 0 ],
			"obj-5::obj-20" : [ "Frequency", "Freq", 0 ],
			"obj-6::obj-33" : [ "Quadrants", "Quadrants", 0 ],
			"obj-6::obj-55" : [ "Bypass", "Bypass", 0 ],
			"obj-6::obj-80" : [ "Response", "Response", 0 ],
			"obj-7::obj-106" : [ "DomainCV_Amt", "DomainCV_Amt", 0 ],
			"obj-7::obj-12" : [ "function", "function", 0 ],
			"obj-7::obj-129" : [ "Domain", "Domain", 0 ],
			"obj-7::obj-20" : [ "mute", "mute", 0 ],
			"obj-8::obj-11" : [ "Resonance", "Res", 0 ],
			"obj-8::obj-26" : [ "spectral", "spectral", 0 ],
			"obj-8::obj-51" : [ "CV2[1]", "CV2", 0 ],
			"obj-8::obj-54" : [ "CV1", "CV1", 0 ],
			"obj-8::obj-55" : [ "power", "power", 0 ],
			"obj-8::obj-59" : [ "filter_mode", "filter_mode", 0 ],
			"obj-8::obj-63" : [ "CV3[1]", "CV3", 0 ],
			"obj-8::obj-95" : [ "Freq[1]", "Freq", 0 ],
			"obj-8::obj-98" : [ "Gain", "Gain", 0 ],
			"parameterbanks" : 			{
				"0" : 				{
					"index" : 0,
					"name" : "",
					"parameters" : [ "-", "-", "-", "-", "-", "-", "-", "-" ]
				}

			}
,
			"parameter_overrides" : 			{
				"obj-15::obj-106" : 				{
					"parameter_longname" : "CV3[2]"
				}
,
				"obj-15::obj-107" : 				{
					"parameter_longname" : "Linear[1]"
				}
,
				"obj-15::obj-11" : 				{
					"parameter_longname" : "PWM[1]"
				}
,
				"obj-15::obj-129" : 				{
					"parameter_longname" : "CV2[2]"
				}
,
				"obj-15::obj-36" : 				{
					"parameter_longname" : "PW[1]"
				}
,
				"obj-15::obj-4" : 				{
					"parameter_longname" : "Waveform[1]"
				}
,
				"obj-15::obj-45" : 				{
					"parameter_longname" : "FreqMode[1]"
				}
,
				"obj-15::obj-46" : 				{
					"parameter_longname" : "Offset[1]"
				}
,
				"obj-15::obj-51" : 				{
					"parameter_longname" : "Freq[2]"
				}
,
				"obj-15::obj-53" : 				{
					"parameter_longname" : "Mute[3]"
				}
,
				"obj-20::obj-37" : 				{
					"parameter_longname" : "power[1]"
				}
,
				"obj-21::obj-1" : 				{
					"parameter_longname" : "divide[1]"
				}
,
				"obj-21::obj-129" : 				{
					"parameter_longname" : "Points[1]"
				}
,
				"obj-21::obj-52" : 				{
					"parameter_longname" : "multiply[1]"
				}
,
				"obj-21::obj-69" : 				{
					"parameter_longname" : "Lock[1]"
				}
,
				"obj-36::obj-7" : 				{
					"parameter_longname" : "bypass[1]"
				}
,
				"obj-3::obj-22" : 				{
					"parameter_longname" : "Mute[1]"
				}
,
				"obj-5::obj-12" : 				{
					"parameter_longname" : "Mute[2]"
				}
,
				"obj-8::obj-51" : 				{
					"parameter_longname" : "CV2[1]"
				}
,
				"obj-8::obj-63" : 				{
					"parameter_longname" : "CV3[1]"
				}
,
				"obj-8::obj-95" : 				{
					"parameter_longname" : "Freq[1]"
				}

			}
,
			"inherited_shortname" : 1
		}
,
		"dependency_cache" : [ 			{
				"name" : "M4L.bal2~.maxpat",
				"bootpath" : "C74:/patchers/m4l/Tools resources",
				"type" : "JSON",
				"implicit" : 1
			}
, 			{
				"name" : "MyFive.json",
				"bootpath" : "~/proj/atls5519/hw1r5-beap-synth",
				"patcherrelativepath" : ".",
				"type" : "JSON",
				"implicit" : 1
			}
, 			{
				"name" : "background_sm.maxpat",
				"bootpath" : "C74:/packages/Beap/misc",
				"type" : "JSON",
				"implicit" : 1
			}
, 			{
				"name" : "bp.Big Scope.maxpat",
				"bootpath" : "C74:/packages/Beap/clippings/BEAP/Scope",
				"type" : "JSON",
				"implicit" : 1
			}
, 			{
				"name" : "bp.Classroom Filter.maxpat",
				"bootpath" : "C74:/packages/Beap/clippings/BEAP/Filter",
				"type" : "JSON",
				"implicit" : 1
			}
, 			{
				"name" : "bp.Feedback Delay.maxpat",
				"bootpath" : "C74:/packages/Beap/clippings/BEAP/Effects",
				"type" : "JSON",
				"implicit" : 1
			}
, 			{
				"name" : "bp.Gigaverb.maxpat",
				"bootpath" : "C74:/packages/Beap/clippings/BEAP/Effects",
				"type" : "JSON",
				"implicit" : 1
			}
, 			{
				"name" : "bp.Graphic ADSR.maxpat",
				"bootpath" : "C74:/packages/Beap/clippings/BEAP/Envelope",
				"type" : "JSON",
				"implicit" : 1
			}
, 			{
				"name" : "bp.Keyboard.maxpat",
				"bootpath" : "C74:/packages/Beap/clippings/BEAP/Input",
				"type" : "JSON",
				"implicit" : 1
			}
, 			{
				"name" : "bp.LFO.maxpat",
				"bootpath" : "C74:/packages/Beap/clippings/BEAP/LFO",
				"type" : "JSON",
				"implicit" : 1
			}
, 			{
				"name" : "bp.LFO3.maxpat",
				"bootpath" : "C74:/packages/Beap/clippings/BEAP/LFO",
				"type" : "JSON",
				"implicit" : 1
			}
, 			{
				"name" : "bp.Oscillator.maxpat",
				"bootpath" : "C74:/packages/Beap/clippings/BEAP/Oscillator",
				"type" : "JSON",
				"implicit" : 1
			}
, 			{
				"name" : "bp.Signal Mixer.maxpat",
				"bootpath" : "C74:/packages/Beap/clippings/BEAP/Mixers",
				"type" : "JSON",
				"implicit" : 1
			}
, 			{
				"name" : "bp.Stereo.maxpat",
				"bootpath" : "C74:/packages/Beap/clippings/BEAP/Output",
				"type" : "JSON",
				"implicit" : 1
			}
, 			{
				"name" : "bp.VCA.maxpat",
				"bootpath" : "C74:/packages/Beap/clippings/BEAP/Level",
				"type" : "JSON",
				"implicit" : 1
			}
, 			{
				"name" : "pastebang.maxpat",
				"bootpath" : "C74:/packages/Beap/misc",
				"type" : "JSON",
				"implicit" : 1
			}
, 			{
				"name" : "sine.svg",
				"bootpath" : "C74:/media/max/picts/m4l-picts",
				"type" : "svg",
				"implicit" : 1
			}
, 			{
				"name" : "square.svg",
				"bootpath" : "C74:/media/max/picts/m4l-picts",
				"type" : "svg",
				"implicit" : 1
			}
, 			{
				"name" : "up.svg",
				"bootpath" : "C74:/media/max/picts/m4l-picts",
				"type" : "svg",
				"implicit" : 1
			}
, 			{
				"name" : "updown.svg",
				"bootpath" : "C74:/media/max/picts/m4l-picts",
				"type" : "svg",
				"implicit" : 1
			}
 ],
		"autosave" : 0
	}

}
